<?xml version="1.0" encoding="UTF-8"?>
<svg id="Layer_37" data-name="Layer 37" xmlns="http://www.w3.org/2000/svg" xmlns:xlink="http://www.w3.org/1999/xlink" viewBox="0 0 4498.49 6737.71">
  <defs>
    <style>
      .cls-1 {
        fill: none;
      }

      .cls-2 {
        fill: #2d3f47;
      }

      .cls-3 {
        fill: #70ab9f;
      }

      .cls-4 {
        fill: #88311a;
      }

      .cls-5 {
        fill: #e5c19c;
      }

      .cls-6 {
        fill: #3f8781;
      }

      .cls-7 {
        fill: #13110e;
      }

      .cls-8 {
        fill: #2a4b60;
      }

      .cls-9 {
        fill: #87311a;
      }

      .cls-10 {
        fill: #e87943;
      }

      .cls-11 {
        fill: #fff2db;
      }

      .cls-12 {
        fill: #0d2a39;
      }

      .cls-13 {
        fill: #2f566d;
      }

      .cls-14 {
        fill: #ffedd1;
      }

      .cls-15 {
        fill: #ffb754;
      }

      .cls-16 {
        fill: #17150f;
      }

      .cls-17 {
        fill: #15120e;
      }

      .cls-18 {
        fill: #ffedd3;
      }

      .cls-19 {
        fill: #12110d;
      }

      .cls-20 {
        fill: #fdeacf;
      }

      .cls-21 {
        fill: #ff974a;
      }

      .cls-22 {
        fill: #ffb64f;
      }

      .cls-23 {
        fill: #1b272f;
      }

      .cls-24 {
        fill: #3c857f;
      }

      .cls-25 {
        fill: #c4471e;
      }

      .cls-26 {
        fill: #de6129;
      }

      .cls-27 {
        fill: #e7c9a7;
      }

      .cls-28 {
        fill: #1f4c3b;
      }

      .cls-29 {
        fill: #84321c;
      }

      .cls-30 {
        fill: #17140f;
      }

      .cls-31 {
        fill: #d45522;
      }

      .cls-32 {
        fill: #f58956;
      }

      .cls-33 {
        fill: #ffb652;
      }

      .cls-34 {
        fill: #cc6715;
      }

      .cls-35 {
        fill: #db5b29;
      }

      .cls-36 {
        clip-path: url(#clippath);
      }

      .cls-37 {
        fill: #3c896b;
      }

      .cls-38 {
        fill: #eccba8;
      }
    </style>
    <clipPath id="clippath">
      <rect class="cls-1" y="0" width="4498.49" height="6737.71"/>
    </clipPath>
  </defs>
  <g class="cls-36">
    <rect class="cls-8" x="-123.13" y="-122.81" width="4776.3" height="6985.19"/>
    <path class="cls-26" d="M332.99,3612.65h3910.96c493.93,0,894.94,401.01,894.94,894.94v2493.57H-631.98v-2423.54c0-532.58,432.39-964.97,964.97-964.97Z"/>
    <path class="cls-16" d="M321.59,6864.54c-7.18,0-13-5.82-13-13v-1152.43c0-222.39-32.83-310.52-33.16-311.38-.13-.33-.25-.69-.35-1.03-18.21-62.12-48.2-115.56-89.16-158.84-32.8-34.66-72.73-63-118.69-84.24-78.84-36.43-148.99-39.32-149.69-39.35-7.17-.26-12.78-6.27-12.53-13.44.24-7.02,6.01-12.55,12.98-12.55.15,0,.3,0,.45,0,3.04.1,75.29,2.96,158.76,41.29,49.15,22.57,91.94,52.83,127.16,89.93,43.93,46.27,76.07,103.26,95.52,169.38,3.22,8.63,34.7,98.81,34.7,320.21v1152.43c0,7.18-5.82,13-13,13Z"/>
    <path class="cls-16" d="M4536.72,6269.69H321.59c-7.18,0-13-5.82-13-13s5.82-13,13-13h4215.12c7.18,0,13,5.82,13,13s-5.82,13-13,13Z"/>
    <path class="cls-16" d="M604.48,5586.47c-1.01,0-2.03-.12-3.05-.36-1.56-.38-157.27-37.39-286.43-36.2-.04,0-.08,0-.13,0-7.12,0-12.93-5.74-13-12.88-.07-7.18,5.7-13.05,12.88-13.12,132.45-1.26,286.27,35.36,292.75,36.92,6.98,1.68,11.28,8.7,9.6,15.68-1.43,5.96-6.76,9.96-12.63,9.96Z"/>
    <path class="cls-16" d="M4576.53,5583.26c-.75,0-1.52-.07-2.29-.2-195.07-34.61-634.21-.19-638.62.16-7.17.58-13.42-4.77-13.99-11.93-.57-7.16,4.77-13.42,11.93-13.99,1.11-.09,112.59-8.9,246.95-13.27,180.87-5.89,314.87-1.37,398.28,13.43,7.07,1.25,11.78,8,10.53,15.07-1.12,6.3-6.6,10.73-12.79,10.73Z"/>
    <path class="cls-16" d="M4027.67,4413.71c-5.01,0-9.79-2.91-11.92-7.8-2.87-6.58.13-14.24,6.71-17.12,48.42-21.14,106.92-38.8,173.87-52.47,53.31-10.89,112.12-19.3,174.79-25.01,106.61-9.7,188.79-8.18,189.61-8.17,7.18.14,12.88,6.08,12.73,13.26-.14,7.18-6.05,12.88-13.26,12.74-.81-.02-81.8-1.5-187.04,8.09-175.17,15.97-281.74,49.81-340.3,75.38-1.69.74-3.46,1.09-5.2,1.09Z"/>
    <path class="cls-16" d="M381.51,5205.73c-3.59,0-7.17-1.48-9.74-4.38-4.76-5.38-4.26-13.59,1.11-18.35,60.09-53.21,119.46-152.79,171.71-287.96,39.8-102.97,61.59-190.94,61.8-191.82,1.71-6.97,8.76-11.23,15.73-9.52,6.97,1.71,11.24,8.75,9.52,15.72-.22.89-22.33,90.22-62.68,194.69-23.76,61.5-49.12,116.22-75.39,162.66-33.16,58.61-67.96,104.26-103.45,135.69-2.47,2.19-5.55,3.27-8.61,3.27Z"/>
    <path class="cls-18" d="M4038.28,516.46v2238.08c0,83.64-67.81,151.45-151.45,151.45H581.04c-83.65,0-151.46-67.81-151.46-151.45V516.46c0-83.65,67.81-151.46,151.46-151.46h3305.79c83.64,0,151.45,67.81,151.45,151.46Z"/>
    <path class="cls-3" d="M4038.28,2096.51v411.44h-551.13l-859.06-423.59-15.83-237.53,324.62-197.94s166.27-95.01,340.46,0l760.94,447.62Z"/>
    <path class="cls-15" d="M2536.21,588.17l22.85,70.33c2.12,6.53,8.21,10.96,15.08,10.96h73.95c15.36,0,21.75,19.66,9.32,28.69l-59.83,43.47c-5.56,4.04-7.88,11.2-5.76,17.73l22.85,70.33c4.75,14.61-11.97,26.76-24.4,17.73l-59.83-43.47c-5.56-4.04-13.08-4.04-18.64,0l-59.83,43.47c-12.43,9.03-29.15-3.12-24.4-17.73l22.85-70.33c2.12-6.53-.2-13.69-5.76-17.73l-59.83-43.47c-12.43-9.03-6.04-28.69,9.32-28.69h73.95c6.87,0,12.96-4.42,15.08-10.96l22.85-70.33c4.75-14.61,25.42-14.61,30.16,0Z"/>
    <path class="cls-15" d="M2882.7,588.17l22.85,70.33c2.12,6.53,8.21,10.96,15.08,10.96h73.95c15.36,0,21.75,19.66,9.32,28.69l-59.83,43.47c-5.56,4.04-7.88,11.2-5.76,17.73l22.85,70.33c4.75,14.61-11.97,26.76-24.4,17.73l-59.83-43.47c-5.56-4.04-13.08-4.04-18.64,0l-59.83,43.47c-12.43,9.03-29.15-3.12-24.4-17.73l22.85-70.33c2.12-6.53-.2-13.69-5.76-17.73l-59.83-43.47c-12.43-9.03-6.04-28.69,9.32-28.69h73.95c6.87,0,12.96-4.42,15.08-10.96l22.85-70.33c4.75-14.61,25.42-14.61,30.16,0Z"/>
    <path class="cls-15" d="M3229.19,588.17l22.85,70.33c2.12,6.53,8.21,10.96,15.08,10.96h73.95c15.36,0,21.75,19.66,9.32,28.69l-59.83,43.47c-5.56,4.04-7.88,11.2-5.76,17.73l22.85,70.33c4.75,14.61-11.97,26.76-24.4,17.73l-59.83-43.47c-5.56-4.04-13.08-4.04-18.64,0l-59.83,43.47c-12.43,9.03-29.15-3.12-24.4-17.73l22.85-70.33c2.12-6.53-.2-13.69-5.76-17.73l-59.83-43.47c-12.43-9.03-6.04-28.69,9.32-28.69h73.95c6.87,0,12.96-4.42,15.08-10.96l22.85-70.33c4.75-14.61,25.42-14.61,30.16,0Z"/>
    <path class="cls-15" d="M3575.68,588.17l22.85,70.33c2.12,6.53,8.21,10.96,15.08,10.96h73.95c15.36,0,21.75,19.66,9.32,28.69l-59.83,43.47c-5.56,4.04-7.88,11.2-5.76,17.73l22.85,70.33c4.75,14.61-11.97,26.76-24.4,17.73l-59.83-43.47c-5.56-4.04-13.08-4.04-18.64,0l-59.83,43.47c-12.43,9.03-29.15-3.12-24.4-17.73l22.85-70.33c2.12-6.53-.2-13.69-5.76-17.73l-59.83-43.47c-12.43-9.03-6.04-28.69,9.32-28.69h73.95c6.87,0,12.96-4.42,15.08-10.96l22.85-70.33c4.75-14.61,25.42-14.61,30.16,0Z"/>
    <path class="cls-5" d="M2021.84,844.21H695.33c-49.82,0-90.35-40.53-90.35-90.35v-158.22c0-49.82,40.53-90.35,90.35-90.35h1326.51c49.82,0,90.35,40.53,90.35,90.35v158.22c0,49.82-40.53,90.35-90.35,90.35ZM695.33,528.29c-37.14,0-67.35,30.21-67.35,67.35v158.22c0,37.14,30.21,67.35,67.35,67.35h1326.51c37.14,0,67.35-30.21,67.35-67.35v-158.22c0-37.14-30.21-67.35-67.35-67.35H695.33Z"/>
    <rect class="cls-5" x="1028.14" y="663.25" width="757.88" height="23"/>
    <path class="cls-13" d="M884.84,777.66c-2.94,0-5.89-1.12-8.13-3.37l-63.33-63.33c-4.49-4.49-4.49-11.77,0-16.26,4.49-4.49,11.77-4.49,16.26,0l63.33,63.33c4.49,4.49,4.49,11.77,0,16.26-2.25,2.25-5.19,3.37-8.13,3.37Z"/>
    <path class="cls-13" d="M775.42,734.21c-42.35,0-76.81-34.46-76.81-76.81s34.46-76.81,76.81-76.81,76.81,34.46,76.81,76.81-34.46,76.81-76.81,76.81ZM775.42,603.58c-29.67,0-53.81,24.14-53.81,53.81s24.14,53.81,53.81,53.81,53.81-24.14,53.81-53.81-24.14-53.81-53.81-53.81Z"/>
    <path class="cls-38" d="M2867.62,1203.68h889.46s-20.87-146.06-161.71-146.06c0,0-88.68-7.82-138.24,54.77,0,0-57.38-55.4-133.02-55.09,0,0-106.94,0-156.5,73.19,0,0-57.38-76.11-140.85-73.19,0,0-153.96,5.53-159.14,146.38Z"/>
    <path class="cls-6" d="M616.48,1774.5s-183.05,274.77,224.26,373.2c0,0,230.96-28.71,329.38-205.05l-32.81-311.68s-65.62-131.23-151.74-159.94c0,0,71.22-291.17-144.84-307.58,0,0-195.55-16.4-154.54,270.67,0,0-192.74,98.43-69.71,340.39Z"/>
    <path class="cls-12" d="M840.73,2509.38c-4.97,0-9-4.03-9-9v-1025.26c0-4.97,4.03-9,9-9s9,4.03,9,9v1025.26c0,4.97-4.03,9-9,9Z"/>
    <path class="cls-12" d="M840.74,1745.14c-2.56,0-5.11-1.09-6.89-3.21-3.2-3.8-2.71-9.48,1.09-12.68l170.68-143.59c3.8-3.2,9.48-2.71,12.68,1.09,3.2,3.8,2.71,9.48-1.09,12.68l-170.68,143.59c-1.69,1.42-3.74,2.11-5.79,2.11Z"/>
    <path class="cls-12" d="M840.74,2015.09c-3.06,0-6.04-1.56-7.73-4.38l-130.62-218.25c-2.55-4.27-1.16-9.79,3.1-12.34,4.27-2.55,9.79-1.16,12.34,3.1l130.62,218.25c2.55,4.27,1.16,9.79-3.1,12.34-1.45.87-3.04,1.28-4.61,1.28Z"/>
    <path class="cls-24" d="M3864.51,2513.88H583.67c-7.46,0-13.5-6.04-13.5-13.5s6.04-13.5,13.5-13.5h3280.84c7.46,0,13.5,6.04,13.5,13.5s-6.04,13.5-13.5,13.5Z"/>
    <path class="cls-24" d="M735.39,2513.88c-7.01,0-12.93-5.41-13.45-12.52-2.63-35.88-13.9-69.31-33.52-99.37-15.86-24.3-37.2-46.54-63.45-66.12-45.32-33.81-90-48.03-90.45-48.17-7.11-2.23-11.08-9.8-8.86-16.91,2.22-7.11,9.78-11.08,16.89-8.87,1.97.61,48.89,15.45,97.85,51.77,28.96,21.49,52.62,46.08,70.34,73.09,22.32,34.04,35.15,71.93,38.12,112.6.54,7.44-5.04,13.91-12.48,14.45-.33.02-.67.04-1,.04Z"/>
    <path class="cls-24" d="M807.91,2500.38s90.36-226.34,305.98-199.64l1515.63-341.41s179.9-155.66,274.38,72.21c0,0,188.96-68.55,203.79,137.09,0,0,214.9-74.1,216.75,133.39,0,0,222.37-63.75,239.05,198.37H807.91Z"/>
    <polygon class="cls-21" points="1856.13 1490.54 1856.13 2507.95 1092.08 2507.95 1092.08 1383.65 1396.9 1055.07 1677.98 1122.37 1856.13 1490.54"/>
    <polygon class="cls-35" points="1787.94 2507.59 1787.94 1349.64 2675.77 1385.23 2675.77 2507.59 1787.94 2507.59"/>
    <polygon class="cls-29" points="2829.52 1487.05 2789.63 1526.94 1837.3 1526.94 1403.34 1092.99 1094.91 1434.58 1020.22 1434.58 1020.22 1404.3 1389.65 1006.61 2349.07 1006.61 2829.52 1487.05"/>
    <polygon class="cls-31" points="2829.52 1487.05 2823.92 1492.65 1858.4 1492.65 1392.41 1006.61 2349.07 1006.61 2829.52 1487.05"/>
    <path class="cls-25" d="M2077.36,1410.18c-3.34,0-6.67-1.33-9.13-3.96l-269.08-287.54c-4.72-5.04-4.45-12.95.59-17.67,5.04-4.72,12.95-4.45,17.67.59l269.08,287.54c4.72,5.04,4.45,12.95-.59,17.67-2.41,2.26-5.48,3.37-8.54,3.37Z"/>
    <path class="cls-25" d="M2233.66,1402.39c-3.34,0-6.67-1.33-9.13-3.96l-269.08-287.55c-4.72-5.04-4.45-12.95.59-17.67,5.04-4.72,12.95-4.45,17.67.59l269.08,287.55c4.72,5.04,4.45,12.95-.59,17.67-2.41,2.26-5.48,3.37-8.54,3.37Z"/>
    <path class="cls-25" d="M2389.96,1394.6c-3.34,0-6.67-1.33-9.13-3.96l-269.08-287.55c-4.72-5.04-4.45-12.95.59-17.67,5.04-4.72,12.95-4.45,17.67.59l269.08,287.55c4.72,5.04,4.46,12.95-.59,17.67-2.41,2.26-5.48,3.37-8.54,3.37Z"/>
    <path class="cls-25" d="M2546.27,1386.8c-3.34,0-6.67-1.33-9.13-3.96l-269.08-287.55c-4.72-5.04-4.46-12.95.59-17.67,5.04-4.72,12.95-4.45,17.67.59l269.08,287.55c4.72,5.04,4.46,12.95-.59,17.67-2.41,2.26-5.48,3.37-8.54,3.37Z"/>
    <rect class="cls-14" x="1942.82" y="1628.36" width="156.3" height="230.41"/>
    <rect class="cls-14" x="1348.17" y="1463.18" width="156.3" height="230.41"/>
    <rect class="cls-14" x="2366.07" y="1628.36" width="156.3" height="230.41"/>
    <rect class="cls-14" x="2042.73" y="2036.59" width="156.3" height="230.41"/>
    <rect class="cls-14" x="2265.63" y="2036.59" width="156.3" height="230.41"/>
    <path class="cls-4" d="M2470.63,2038.06h-480.85c-7.73,0-14-6.27-14-14s6.27-14,14-14h480.85c7.73,0,14,6.27,14,14s-6.27,14-14,14Z"/>
    <path class="cls-9" d="M1581.41,2136.24v371.71h-287.21v-371.71c0-79.31,64.3-143.6,143.61-143.6,39.65,0,75.55,16.07,101.54,42.06,25.99,25.98,42.06,61.88,42.06,101.54Z"/>
    <rect class="cls-33" x="3354.89" y="1524.11" width="533.29" height="533.29" rx="88.33" ry="88.33"/>
    <path class="cls-11" d="M3625.47,1954.68c-11.13,0-66.76-3.6-100.66-73.1-4.48-9.18-.67-20.26,8.52-24.74,9.18-4.48,20.26-.67,24.74,8.52,23.49,48.16,58.66,52.04,66.09,52.31,21.05-5.16,37.45-16.52,48.75-33.78,12.54-19.15,7.7-45.3-10.8-58.27-22.19-15.57-53.14-18.59-53.45-18.62-1.08-.1-2.2-.3-3.25-.59-40.1-11.03-57.85-34.48-65.68-52.21-7.62-17.25-7.42-32.46-7.18-36.75.21-31.04,15.83-55.68,44.02-69.45,19.68-9.6,38.76-10.76,40.87-10.86.29-.01.59-.02.88-.02,43.94,0,69.25,20.91,82.74,38.46,14.21,18.47,18.26,36.77,18.68,38.8l-36.25,7.43.03.14c-.03-.13-2.91-12.76-12.59-24.84-12.13-15.12-29.63-22.86-52.03-22.99-2.11.17-14.85,1.42-26.92,7.54-15.3,7.76-22.43,19.34-22.43,36.43,0,.67,0,.94-.06,1.56-.05,1.1-.28,10.52,4.71,20.93,6.75,14.09,20.08,24.1,39.65,29.76,8.44.99,42.47,6,69.52,24.99,16.97,11.91,28.42,29.78,32.23,50.31,3.78,20.4-.38,41.18-11.73,58.51-11.75,17.94-34.03,41.19-73.49,50.06-.99.22-2,.36-3.02.42-.22.01-.87.04-1.89.04Z"/>
    <path class="cls-11" d="M3621.53,1999.3c-10.22,0-18.5-8.28-18.5-18.5v-365.22c0-10.22,8.28-18.5,18.5-18.5s18.5,8.28,18.5,18.5v365.22c0,10.22-8.28,18.5-18.5,18.5Z"/>
    <path class="cls-32" d="M1936.8,4749.76s24.16,331.39,100.11,462.56l124.27,196.76,210.57-141.53,24.16-65.59s-48.33-134.63-93.2-207.12l-17.26-272.71-348.65,27.62Z"/>
    <path class="cls-23" d="M3928.59,5108.76l-321.04-158.79-1052.85,107.01c-158.79,72.5-390.07,300.32-390.07,300.32l68.19,737.65c6.87,130.36,154.38,665.51,154.38,665.51l1128.63,17.15c54.89-144.08,113.28-942.56,113.28-942.56,119.25-37.01,227.54-51.83,227.54-51.83l53.07-42.51c15.58-11.6,29.62-25.15,41.76-40.32,202.67-253.28-22.89-591.63-22.89-591.63ZM2915.49,6386.54c0-116.64-126.93-614.06-126.93-614.06,92.63-17.15,171.53,0,171.53,0l-44.6,614.06Z"/>
    <path class="cls-16" d="M2943.71,5774.27c-.44,0-.89-.02-1.34-.07-7.14-.73-12.34-7.11-11.61-14.26,12.7-124.14,42.2-231.83,87.69-320.07,36.64-71.08,83.66-129.78,139.77-174.47,96.09-76.54,184.63-85.29,188.35-85.62,7.17-.64,13.47,4.63,14.11,11.78.64,7.14-4.62,13.46-11.76,14.11-.23.02-21.59,2.12-53.82,13.14-29.67,10.15-74.92,30.18-121.98,67.96-52.93,42.49-97.38,98.38-132.12,166.1-43.67,85.13-72.06,189.34-84.38,309.71-.68,6.69-6.33,11.68-12.92,11.68Z"/>
    <path class="cls-16" d="M3619.29,5952.6c-.45,0-.9-.02-1.35-.07-7.14-.74-12.33-7.13-11.59-14.27,9.37-90.54-12.5-195.33-12.72-196.38-1.49-7.02,3-13.92,10.02-15.41,7.02-1.49,13.92,3,15.41,10.02.94,4.44,22.94,109.76,13.14,204.45-.69,6.69-6.34,11.66-12.92,11.66Z"/>
    <path class="cls-16" d="M2921.06,6401.91c-7.09,0-12.89-5.7-13-12.81-.91-62.77-18.58-194.07-97.63-463.1-47.44-161.46-95.11-297.52-95.59-298.88-2.38-6.77,1.18-14.19,7.96-16.57,6.78-2.38,14.19,1.18,16.57,7.96.48,1.36,48.34,137.96,95.97,300.05,64.14,218.3,97.35,376.49,98.71,470.16.1,7.18-5.63,13.08-12.81,13.19-.06,0-.13,0-.19,0Z"/>
    <path class="cls-16" d="M3056.82,5412c-2.97,0-5.95-1.01-8.39-3.08-97.69-82.69-359.65-203.17-362.29-204.38-6.53-2.99-9.39-10.71-6.4-17.23,2.99-6.53,10.71-9.39,17.23-6.4,10.89,4.99,267.84,123.18,368.25,208.17,5.48,4.64,6.16,12.84,1.52,18.32-2.57,3.04-6.24,4.6-9.93,4.6Z"/>
    <path class="cls-16" d="M2943.69,5709.37l-159.34,51.9v27.62l177.84-8.67s-5.57-160.53,29.02-243.31"/>
    <path class="cls-20" d="M608.61,5102.04s-125.84,201.34-103.47,397.08c0,0-2.8,187.36,190.15,260.06,0,0,315.99,50.33,405.47,111.85l-223.71,947.97,1196.84-58.72s151-469.79,209.73-743.83c0,0,125.84-453.01,8.39-601.22,0,0-92.28-151-307.6-234.89l-195.75-81.09-103.47-139.82-1076.6,142.61Z"/>
    <path class="cls-27" d="M1510.04,6789.1c-1.63,0-3.29-.3-4.9-.93-6.95-2.71-10.38-10.54-7.67-17.48,39.12-100.25,102.15-289.79,180.25-623.47,46.77-199.8,77.11-358.59,77.41-360.17,8.51-46.31,10.16-91.29,4.9-133.59-4.2-33.77-12.78-65.94-25.53-95.63-21.74-50.66-48.43-76.91-48.69-77.17-.42-.4-.83-.86-1.19-1.31-51.53-64.89-128.55-118.38-228.93-159-81.06-32.8-177.34-57.29-286.16-72.78-186-26.47-346.01-17.28-347.61-17.18-7.42.45-13.84-5.22-14.29-12.66-.45-7.44,5.22-13.84,12.66-14.29,1.62-.1,163.94-9.46,352.56,17.33,111.08,15.78,209.57,40.83,292.73,74.45,104.54,42.27,185.18,98.36,239.67,166.7,4.76,4.79,31.27,32.78,53.45,83.85,13.95,32.11,23.36,66.87,27.99,103.32,5.75,45.35,4.06,93.44-5.03,142.93-.32,1.67-30.75,160.92-77.64,361.25-43.31,185.07-109.95,444.12-181.41,627.25-2.08,5.33-7.18,8.59-12.58,8.6Z"/>
    <path class="cls-27" d="M1544.14,5360.84c-2.64,0-5.3-.77-7.64-2.38-6.14-4.22-7.7-12.63-3.48-18.77l78.83-114.65c4.22-6.15,12.63-7.7,18.77-3.48,6.14,4.22,7.7,12.63,3.48,18.77l-78.83,114.65c-2.62,3.81-6.84,5.85-11.14,5.85Z"/>
    <path class="cls-27" d="M1100.77,5884.54c-1.48,0-2.98-.24-4.45-.76-7.04-2.46-10.75-10.16-8.3-17.19l63.21-181.12c2.46-7.04,10.15-10.76,17.19-8.3,7.04,2.46,10.75,10.16,8.3,17.19l-63.21,181.12c-1.94,5.57-7.17,9.06-12.75,9.06Z"/>
    <path class="cls-16" d="M1097.99,5895.75c-2.62,0-5.27-.79-7.57-2.44-61.43-44.08-200.95-80.96-403.48-106.66-154.2-19.57-291.41-25.71-292.78-25.77-7.17-.31-12.73-6.38-12.42-13.55.31-7.17,6.39-12.76,13.55-12.42,1.38.06,139.51,6.24,294.74,25.93,209.86,26.62,349.66,64.08,415.54,111.35,5.83,4.19,7.17,12.31,2.98,18.14-2.54,3.54-6.53,5.42-10.57,5.42Z"/>
    <path class="cls-16" d="M3629.08,5848.1c-4.14,0-8.21-1.99-10.73-5.67-4.06-5.92-2.51-14.04,3.42-18.1,1.82-1.25,46.2-30.79,190.08-53.48,83.36-13.15,183.71-21.46,298.27-24.72,142.91-4.05,308.55-.21,492.34,11.44,7.17.45,12.61,6.63,12.15,13.8-.45,7.17-6.63,12.59-13.8,12.15-180.89-11.47-344.1-15.35-485.08-11.53-112.98,3.06-212.04,11.03-294.43,23.7-73.46,11.3-119.81,24.32-145.75,33.26-28.17,9.7-39.05,16.81-39.16,16.88-2.24,1.53-4.78,2.27-7.3,2.27Z"/>
    <path class="cls-37" d="M2127.82,3562.92s176.03-130.09,504.08-194.06l512.08-105.98s284.4,12.23,749.24,336.39c0,0,155.96,152.91,201.84,376.15,0,0,124.71,500.59-28.33,1024.64,0,0-65.39,225.22-350.54,179.81,0,0-127.14-14.53-214.32-61.75,0,0-581.9,81.15-1017.71-69.13l-123.23-775.45-249.47-49.14-156.29-368.64,172.66-292.83Z"/>
    <path class="cls-17" d="M909.67,3764.21s-57.49-174.4,103.49-344.96c0,0,57.49-59.41,139.9-109.24,0,0,103.49-65.16,149.48-166.73,0,0,72.83-229.98,107.32-247.22,0,0-218.48-59.41-44.08-264.47,0,0,122.65-76.66,206.98,13.42,0,0,44.08,38.33,32.58,93.91,0,0,145.65-82.41,329.63-34.5,0,0,222.31,67.08,291.3,281.72,0,0,80.49,256.81-40.25,316.22l-68.99,218.48s204.35,278.14,19.87,496.68l-1227.24-253.29Z"/>
    <path class="cls-22" d="M552.38,4390.58l224.19,44.35,86.23,283.32,61.59,335.05s534.6,108.4,881.97,54.2c0,0,44.35,7.39,46.81-83.76,0,0,29.56-160.13,86.23-243.9l342.44-411.42-32.59-219.26s-110.3-305.49-408.4-399.11l-541.99-135.5s-293.17,41.88-431.13,137.96c0,0-234.27,147.59-315.34,638.08Z"/>
    <path class="cls-34" d="M1032.31,4520.72c-2.21,0-4.44-.69-6.33-2.13-4.62-3.5-5.53-10.09-2.03-14.71,12.95-17.1,34.69-69.63,64.71-222.82,18.14-92.58,30.62-178.62,30.75-179.47.83-5.74,6.15-9.73,11.89-8.89,5.74.83,9.72,6.15,8.89,11.89-.12.86-12.67,87.35-30.91,180.43-24.73,126.2-47.8,204.1-68.6,231.54-2.06,2.73-5.2,4.16-8.38,4.16Z"/>
    <path class="cls-34" d="M2062.57,4363.99c-4.96,0-9.37-3.53-10.31-8.58l-42.05-225.55c-1.06-5.7,2.7-11.18,8.4-12.25,5.7-1.07,11.18,2.7,12.25,8.4l42.05,225.55c1.06,5.7-2.7,11.18-8.4,12.25-.65.12-1.3.18-1.94.18Z"/>
    <path class="cls-34" d="M1538.43,5136.05c-66.48,0-141.42-3.9-223.01-11.6-148.08-13.98-268.51-35.98-269.71-36.21-5.7-1.05-9.48-6.52-8.43-12.23s6.53-9.47,12.23-8.43c1.19.22,120.86,22.08,268.06,35.97,194.09,18.31,347.67,14.53,444.15-10.95,5.61-1.48,11.35,1.87,12.83,7.47,1.48,5.61-1.87,11.35-7.47,12.83-55.35,14.61-127.81,22.38-215.39,23.08-4.38.04-8.8.05-13.25.05Z"/>
    <path class="cls-28" d="M3882.26,4709.96c-2.35,0-4.71-.78-6.67-2.39-38.39-31.62-152.03-62.72-328.61-89.94-134.54-20.74-258.86-31.84-260.1-31.95-5.78-.51-10.04-5.61-9.53-11.38.51-5.78,5.6-10.05,11.38-9.53,1.25.11,126.15,11.26,261.35,32.1,182.95,28.2,296.95,59.99,338.86,94.5,4.48,3.69,5.12,10.3,1.43,14.78-2.08,2.52-5.08,3.83-8.11,3.83Z"/>
    <path class="cls-28" d="M3461.74,5126.65c-1.71,0-3.44-.42-5.05-1.3l-309.65-170.12c-5.08-2.79-6.94-9.18-4.15-14.26,2.79-5.08,9.18-6.94,14.26-4.15l309.65,170.12c5.08,2.79,6.94,9.18,4.15,14.26-1.91,3.48-5.5,5.45-9.21,5.45Z"/>
    <path class="cls-28" d="M3571.15,4621.3h0c-5.8,0-10.5-4.7-10.5-10.5l.11-370.02c-1.69-123.43,17.14-224.91,33.23-288.32,17.5-68.96,35.22-108.22,35.97-109.85,2.41-5.28,8.63-7.61,13.91-5.2s7.61,8.63,5.21,13.9h0c-.18.39-17.84,39.6-34.88,106.93-15.71,62.08-34.09,161.45-32.43,282.33,0,.05,0,.1,0,.15l-.11,370.09c0,5.8-4.7,10.5-10.5,10.5Z"/>
    <path class="cls-28" d="M2345.93,4110.98c-4.33,0-8.39-2.7-9.91-7.02-17.9-50.94-27.8-132.3-29.44-241.81-1.21-81.12,2.82-148.42,2.86-149.09.35-5.79,5.32-10.18,11.12-9.84,5.79.35,10.19,5.33,9.84,11.12-.04.66-4.03,67.29-2.82,147.64,1.58,105.65,11.35,186.92,28.25,235.01,1.92,5.47-.95,11.46-6.43,13.39-1.15.4-2.33.6-3.48.6Z"/>
    <path class="cls-32" d="M600.52,4401.45s-89.42,402.37-64.83,583.44c0,0,2.24,143.07,122.95,181.07,0,0,125.18,40.24,312.96-29.06l650.5-310.72s125.18-55.88,138.59-131.89c0,0,80.47,22.35,98.36-24.59,0,0,47.94,32.3,70.3-28.06,0,0,77.24,52.65,32.53-193.24l125.18-17.88,42.47-71.53h-241.42s-145.3,2.24-230.25,149.77c0,0-64.83,96.12-134.12,114.01l-570.03,122.95,53.65-236.95s-223.54-89.42-406.84-107.3Z"/>
    <polygon class="cls-32" points="1956.93 4627.27 2002.62 4613.89 2039.1 4542.81 2002.62 4413.68 1918.45 4431.7 1956.93 4627.27"/>
    <path class="cls-19" d="M1923.84,4745.78l8.97,33.11c3.06,11.28,13.29,19.12,24.98,19.12h915.07l43.12-36.63,250.09-575.33c8.21-18.89,4.99-40.8-8.32-56.53l-16.06-18.97c-9.48-11.21-23.33-17.79-38.01-18.07l-784.18-14.98c-42.98-.82-82.66,22.96-102.21,61.24l-289.24,566.59c-6.38,12.49-7.88,26.91-4.21,40.45Z"/>
    <path class="cls-2" d="M1967.38,4780.43c-1.9,0-3.82-.45-5.61-1.4-5.85-3.11-8.08-10.37-4.98-16.23l311.41-586.88c.19-.35.39-.7.62-1.03,1.33-1.99,33.09-48.54,94.08-46.07l780.66-.1c6.63,0,12,5.37,12,12,0,6.63-5.37,12-12,12l-780.91.1c-.17,0-.35,0-.52-.01-45.09-1.93-69.92,30.6-73.06,34.99l-311.07,586.25c-2.16,4.06-6.31,6.38-10.61,6.38Z"/>
    <path class="cls-30" d="M789.24,4797.32c-5.42,0-10.33-3.69-11.66-9.19-1.55-6.44,2.41-12.92,8.86-14.48l164.46-39.61c6.44-1.55,12.92,2.41,14.48,8.86,1.55,6.44-2.41,12.92-8.86,14.48l-164.46,39.61c-.94.23-1.89.34-2.82.34Z"/>
    <path class="cls-30" d="M1012.31,4524.3c-2.11,0-4.25-.56-6.19-1.73-109.83-66.22-400.48-109.51-403.41-109.94-6.56-.96-11.09-7.06-10.13-13.62.96-6.56,7.05-11.09,13.62-10.13.74.11,75.09,11.11,162.32,30.33,117.82,25.96,201.93,53.82,249.99,82.81,5.68,3.42,7.5,10.8,4.08,16.47-2.25,3.74-6.22,5.81-10.29,5.81Z"/>
    <path class="cls-30" d="M1748.96,4684.32c-6.01,0-11.19-4.5-11.9-10.61-.77-6.58,3.95-12.54,10.53-13.31,30.94-3.61,35.95-22.46,36.65-26.23.27-13.24-4.57-23.53-14.81-31.46-8.42-6.52-17.38-8.8-17.47-8.83-6.45-1.53-10.4-7.99-8.87-14.44,1.53-6.45,8.03-10.43,14.48-8.9,1.35.32,13.5,3.38,25.68,12.52,17.06,12.79,25.69,30.99,24.96,52.6-.01.32-.03.63-.07.95-1.63,14.33-15.8,42.72-57.76,47.62-.47.06-.94.08-1.41.08ZM1796.21,4635.26h0,0Z"/>
    <path class="cls-30" d="M1857.89,4684.32c-2.05,0-4.12-.52-6.02-1.63-5.73-3.33-7.68-10.67-4.35-16.41,24.12-41.5,22.26-82.3-5.54-121.29-21.69-30.42-51.58-48.47-51.88-48.65-5.69-3.39-7.55-10.75-4.17-16.44,3.39-5.69,10.74-7.56,16.43-4.19,1.38.82,34.02,20.42,58.7,54.71,33.72,46.86,36.21,98.01,7.2,147.92-2.23,3.83-6.25,5.97-10.39,5.97Z"/>
    <path class="cls-30" d="M1923.88,4645.54c-1.67,0-3.36-.35-4.98-1.09-6.03-2.76-8.68-9.88-5.92-15.9,23.62-51.66,19.7-98.38-11.64-138.86-24.11-31.14-56.14-47.05-56.46-47.21-5.94-2.91-8.42-10.09-5.52-16.04,2.9-5.95,10.07-8.43,16.02-5.54,1.49.72,36.78,18.11,64.37,53.37,25.96,33.17,49.64,88.59,15.05,164.25-2.02,4.41-6.37,7.01-10.92,7.01Z"/>
    <path class="cls-30" d="M1989.54,4594.22c-1.18,0-2.37-.17-3.55-.54-6.33-1.96-9.87-8.68-7.91-15.01,21.74-70.19-40.76-147.16-41.39-147.93-4.21-5.11-3.49-12.67,1.62-16.89,5.11-4.22,12.66-3.5,16.88,1.6.73.88,18.06,21.98,32.44,53.14,19.45,42.12,24.07,82.64,13.38,117.18-1.59,5.15-6.34,8.45-11.46,8.45Z"/>
    <path class="cls-30" d="M2034.22,4532.12c-6.28,0-11.56-4.88-11.96-11.24-3.86-60.84-26.63-79.43-26.86-79.61l.19.14,14.08-19.43c3.26,2.36,31.96,25.15,36.55,97.38.42,6.61-4.6,12.32-11.22,12.74-.26.02-.52.02-.77.02Z"/>
    <path class="cls-10" d="M3279.86,4587.53s13.83,232.41-98.22,336.17c0,0-206.68-44.03-504.42-199.22,0,0-143.14-61.47-77.01-118.16,0,0-63.43-25.64-43.19-75.58,0,0,12.15-36.44,62.08-28.34,0,0-44.54-18.9-24.29-63.43,0,0,10.8-28.34,66.13-24.29l120.12,13.5s-91.78-18.9-83.68-63.43c0,0,4.05-48.59,55.34-48.59,0,0,190.3,10.8,322.57,68.83l3.56,1.7,16.76-38.56s76.44,52.48,118.08,171.9c0,0,12.92,58.32,66.17,67.5Z"/>
    <path class="cls-30" d="M2900.52,4718.33c-1.22,0-2.46-.19-3.68-.58l-368.61-118.59c-6.31-2.03-9.78-8.79-7.75-15.1,2.03-6.31,8.79-9.78,15.1-7.75l368.61,118.6c6.31,2.03,9.78,8.79,7.75,15.1-1.64,5.09-6.35,8.33-11.42,8.33Z"/>
    <path class="cls-30" d="M2952.84,4607.64c-1.07,0-2.16-.14-3.24-.45l-404.37-112.97c-6.38-1.78-10.11-8.4-8.33-14.79,1.78-6.38,8.41-10.11,14.79-8.33l404.37,112.97c6.38,1.78,10.11,8.4,8.33,14.79-1.48,5.3-6.3,8.77-11.55,8.77Z"/>
    <path class="cls-30" d="M2997.12,4496.96c-1.01,0-2.04-.13-3.06-.4l-320.54-84.25c-6.41-1.68-10.24-8.25-8.55-14.66,1.68-6.41,8.24-10.25,14.66-8.55l320.54,84.25c6.41,1.68,10.24,8.25,8.55,14.66-1.42,5.39-6.28,8.95-11.6,8.95Z"/>
    <path class="cls-32" d="M1288.42,3614.87s102.73-5.22,156.7-81.83c0,0,48.75-74.87,73.13-179.34,0,0-101.42-26.92-87.57-172.73,0,0,1.63-68.43,70.06-97.75,0,0,58.63-15.55,90.84,56.64l32.21,68.85s383.74-57.02,445.45-289.65c0,0,31.65,79.12,69.63,120.27,0,0,61.72,96.53,68.05,151.92,0,0,11.08,131.35-45.89,278.52,0,0-79.12,243.7-224.71,280.1,0,0-61.72,15.82-101.28,11.08,0,0,18.99,181.98-129.76,221.55,0,0-172.49,49.06-322.82-137.68,0,0-88.35-118.03-94.02-229.92Z"/>
    <path class="cls-7" d="M1835.03,3760.93s-148.42-32.95-232.91-197.53c0,0-2.19,231.51,204.08,251.26l28.83-53.73Z"/>
    <ellipse class="cls-7" cx="1904.95" cy="3322.97" rx="42.79" ry="26.33" transform="translate(-1843.59 4110.04) rotate(-72.03)"/>
    <ellipse class="cls-7" cx="2111.32" cy="3376.54" rx="40.16" ry="24.71" transform="translate(-1751.83 4343.39) rotate(-72.03)"/>
    <path class="cls-7" d="M1541.79,3265.09c-.26,0-.52-.01-.79-.03-5.51-.43-9.62-5.24-9.19-10.75,2.1-26.92-2.44-51.81-13.49-73.98-8.29-16.63-17.36-25.43-17.45-25.52-3.97-3.81-4.13-10.14-.33-14.12,3.8-3.99,10.09-4.17,14.09-.39,1.75,1.66,42.91,41.44,37.12,115.57-.41,5.24-4.79,9.22-9.96,9.22Z"/>
    <path class="cls-7" d="M2022.67,3522.99c-15.03,0-50.42-.88-66.24-8.79-4.94-2.47-6.94-8.48-4.47-13.42,2.47-4.94,8.48-6.94,13.42-4.47,11.16,5.58,44.77,7.03,63.34,6.63.07,0,.14,0,.22,0,6.08,0,10.24-1.34,12.38-3.98,3-3.71,2.46-10.19,1.99-12.37-.08-.36-.13-.65-.17-1.02l-18.65-161.43c-.63-5.49,3.3-10.45,8.79-11.08,5.49-.64,10.45,3.3,11.08,8.79l18.6,160.97c.69,3.49,2.77,17.59-5.94,28.54-4.19,5.27-12.45,11.55-27.96,11.58-1.01.02-3.26.06-6.37.06Z"/>
    <path class="cls-7" d="M1945.48,3622.99c-29.99,0-60.34-12.04-88.98-35.54-26.81-21.99-42.66-46.11-43.32-47.12-3.01-4.63-1.71-10.82,2.92-13.84,4.62-3.01,10.82-1.71,13.83,2.92.24.36,15.17,22.95,39.65,42.9,31.78,25.92,64,35.51,95.75,28.5,5.39-1.19,10.73,2.22,11.92,7.61,1.19,5.39-2.22,10.73-7.61,11.92-8,1.77-16.07,2.64-24.16,2.64Z"/>
    <path class="cls-7" d="M1844.62,3205.34c-4.39,0-8.73-1.91-11.69-5.59-5.18-6.44-4.19-15.85,2.24-21.05.85-.69,21.17-16.95,51.45-26.75,41.04-13.28,80.93-8.53,115.35,13.75,6.96,4.5,8.95,13.79,4.44,20.74-4.5,6.96-13.79,8.94-20.74,4.44-26.71-17.29-56.63-20.88-88.92-10.68-25.23,7.97-42.57,21.7-42.74,21.84-2.77,2.22-6.09,3.29-9.38,3.29Z"/>
    <path class="cls-7" d="M2213.27,3270.09c-4.8,0-9.51-2.3-12.41-6.56-11.91-17.49-29.7-28.07-52.88-31.44-18.4-2.68-33.44.35-33.58.38-8.1,1.73-16.05-3.44-17.78-11.54-1.73-8.1,3.46-16.08,11.56-17.81.79-.17,19.54-4.08,42.96-.88,31.93,4.36,57.69,19.72,74.51,44.41,4.66,6.85,2.89,16.18-3.96,20.84-2.58,1.76-5.52,2.6-8.43,2.6Z"/>
    <path class="cls-7" d="M2405.88,2793.1s-60.16-13.73-58.66-131.05c0,0-132.36-27.07-76.71-186.51,0,0,46.63-124.84,185.01-114.31,0,0,258.71-141.39,455.75-97.77,0,0,207.57,27.07,269.24,239.15,0,0,42.12,142.89,0,270.74l-508.39,281.51-266.23-261.77Z"/>
    <path class="cls-10" d="M3109.81,3025.29s24.07,189.52,57.16,237.65c0,0,18.05,19.56,7.52,51.14,0,0-48.14,171.47-177.49,227.12,0,0-135.37,75.21-263.22-19.55,0,0-27.85-21.52-37.1-66.9-.83-4.08-1.51-8.35-2.01-12.82l-15.04-51.14s-114.31-27.07-166.95-111.3c0,0-72.2-115.34-84.23-224.63l-18.05-151.4s-36.1-210.58-16.55-291.05c0,0,172.97,113.56,448.23-72.19,0,0,0,95.51,42.11,152.66l46.63,63.18s30.08,67.68,57.16,87.24c0,0,22.56,25.57,42.11-12.04,0,0,45.12-94.76,103.79-97.77,0,0,78.21,1.51,91.75,57.16,0,0,25.57,108.3-37.61,185.01,0,0-34.59,48.13-78.21,49.63Z"/>
    <path class="cls-7" d="M3013.55,3219.32c-30.09,154.93-169.97,233.14-169.97,233.14-54.57,33.17-116,15.34-146.9,2.29-.83-4.08-1.51-8.35-2.01-12.82l-15.04-51.14c215.09,40.61,333.92-171.47,333.92-171.47Z"/>
    <path class="cls-7" d="M3103.78,2929.74c-7.88,0-14.49-6.15-14.96-14.12-5.05-85.87,49.88-112.64,52.23-113.73l12.73,27.16.15-.07c-1.59.79-38.97,20.16-35.16,84.88.49,8.27-5.82,15.37-14.09,15.85-.3.02-.6.03-.89.03Z"/>
    <path class="cls-7" d="M2411.92,2844c-4.63,0-9.19-2.13-12.13-6.16-4.88-6.69-3.43-16.05,3.25-20.94,2.76-2.02,68.23-49.23,128.69-32.43,7.98,2.22,12.66,10.49,10.44,18.47-2.22,7.98-10.5,12.65-18.47,10.44-46.37-12.88-102.4,27.34-102.96,27.75-2.67,1.94-5.76,2.87-8.82,2.87Z"/>
    <path class="cls-7" d="M2822.51,2818.44c-2.79,0-5.62-.78-8.13-2.41-45.61-29.51-138.87-14.5-139.8-14.34-8.16,1.35-15.89-4.17-17.25-12.34-1.36-8.17,4.16-15.89,12.33-17.25,4.29-.71,105.64-17.09,161.03,18.75,6.96,4.5,8.95,13.79,4.45,20.74-2.87,4.44-7.69,6.85-12.61,6.85Z"/>
    <path class="cls-7" d="M2647.98,3243.87c-26.28,0-45.82-2.56-47.99-2.86-5.75-.79-9.77-6.08-8.98-11.83.79-5.75,6.08-9.77,11.83-8.98.55.07,35.48,4.7,74.59,1.41,62.81-5.28,88.26-26.37,98.54-43.13,3.03-4.94,9.5-6.49,14.44-3.46,4.94,3.03,6.49,9.5,3.46,14.44-28.18,45.93-98.14,54.4-145.89,54.4Z"/>
    <path class="cls-7" d="M2601.87,3132.38c-38.48,0-51.12-16.76-52.81-19.29-1.15-1.72-1.76-3.75-1.76-5.82,0-42.69,26.17-171.13,27.29-176.58,0-.04.02-.08.03-.13,6.52-29.99-10.65-59.84-10.82-60.13-2.92-5-1.25-11.43,3.74-14.36,4.99-2.93,11.41-1.28,14.35,3.7.88,1.5,21.53,37.04,13.27,75.19-.67,3.3-25.15,123.71-26.76,168.04,6.09,4.64,26.85,15.34,78.47,1.64,5.61-1.48,11.35,1.85,12.84,7.46,1.49,5.6-1.85,11.35-7.46,12.84-20.36,5.4-36.94,7.44-50.37,7.44Z"/>
    <ellipse class="cls-7" cx="2500.64" cy="2950.09" rx="21.06" ry="35.35"/>
    <ellipse class="cls-7" cx="2756.34" cy="2938.81" rx="22.81" ry="38.29"/>
  </g>
</svg>